<?xml version="1.0" encoding="UTF-8" standalone="no"?>
<svg
   xmlns:dc="http://purl.org/dc/elements/1.1/"
   xmlns:cc="http://creativecommons.org/ns#"
   xmlns:rdf="http://www.w3.org/1999/02/22-rdf-syntax-ns#"
   xmlns:svg="http://www.w3.org/2000/svg"
   xmlns="http://www.w3.org/2000/svg"
   xmlns:sodipodi="http://sodipodi.sourceforge.net/DTD/sodipodi-0.dtd"
   xmlns:inkscape="http://www.inkscape.org/namespaces/inkscape"
   width="1080"
   zoomAndPan="magnify"
   viewBox="0 0 810 809.99999"
   height="1080"
   preserveAspectRatio="xMidYMid meet"
   version="1.0"
   id="svg48"
   sodipodi:docname="icono-calculadora-white.svg"
   inkscape:version="1.0 (4035a4fb49, 2020-05-01)">
  <metadata
     id="metadata52">
    <rdf:RDF>
      <cc:Work
         rdf:about="">
        <dc:format>image/svg+xml</dc:format>
        <dc:type
           rdf:resource="http://purl.org/dc/dcmitype/StillImage" />
        <dc:title></dc:title>
      </cc:Work>
    </rdf:RDF>
  </metadata>
  <sodipodi:namedview
     inkscape:document-rotation="0"
     pagecolor="#ffffff"
     bordercolor="#666666"
     borderopacity="1"
     objecttolerance="10"
     gridtolerance="10"
     guidetolerance="10"
     inkscape:pageopacity="0"
     inkscape:pageshadow="2"
     inkscape:window-width="1536"
     inkscape:window-height="801"
     id="namedview50"
     showgrid="false"
     inkscape:zoom="0.39590614"
     inkscape:cx="724.52337"
     inkscape:cy="603.29698"
     inkscape:window-x="1912"
     inkscape:window-y="-8"
     inkscape:window-maximized="1"
     inkscape:current-layer="svg48" />
  <defs
     id="defs14">
    <clipPath
       id="eedba26a35">
      <path
         d="M 291.44531,0 H 672 V 381 H 291.44531 Z m 0,0"
         clip-rule="nonzero"
         id="path2" />
    </clipPath>
    <clipPath
       id="bd5ead1e2b">
      <path
         d="m 718,0 h 380.4453 V 381 H 718 Z m 0,0"
         clip-rule="nonzero"
         id="path5" />
    </clipPath>
    <clipPath
       id="677d5c521b">
      <path
         d="M 291.44531,429 H 672 V 810 H 291.44531 Z m 0,0"
         clip-rule="nonzero"
         id="path8" />
    </clipPath>
    <clipPath
       id="9409251290">
      <path
         d="m 718,429 h 380.4453 V 810 H 718 Z m 0,0"
         clip-rule="nonzero"
         id="path11" />
    </clipPath>
  </defs>
  <g
     style="fill:#ffffff"
     clip-path="url(#eedba26a35)"
     id="g22"
     transform="translate(-289.44703,1.1831652)">
    <path
       style="fill:#ffffff"
       fill="#aa0061"
       d="M 573.89453,380.32422 H 389.14062 c -53.86718,0 -97.69531,-43.82813 -97.69531,-97.69531 V 97.878906 c 0,-53.867187 43.82813,-97.695312 97.69531,-97.695312 h 184.75 c 53.86719,0 97.69532,43.828125 97.69532,97.695312 V 282.62891 c 0,53.86718 -43.82813,97.69531 -97.69532,97.69531 z m 0,0"
       fill-opacity="1"
       fill-rule="nonzero"
       id="path20" />
  </g>
  <g
     style="fill:#ffffff"
     clip-path="url(#bd5ead1e2b)"
     id="g26"
     transform="translate(-289.44703,1.1831652)">
    <path
       style="fill:#ffffff"
       fill="#aa0061"
       d="M 1000.7383,380.32422 H 815.98828 c -53.86719,0 -97.69531,-43.82813 -97.69531,-97.69531 V 97.878906 c 0,-53.867187 43.82812,-97.695312 97.69531,-97.695312 h 184.75002 c 53.8672,0 97.6953,43.828125 97.6953,97.695312 V 282.62891 c 0,53.86718 -43.8281,97.69531 -97.6953,97.69531 z m 0,0"
       fill-opacity="1"
       fill-rule="nonzero"
       id="path24" />
  </g>
  <g
     style="fill:#ffffff"
     clip-path="url(#677d5c521b)"
     id="g30"
     transform="translate(-289.44703,1.1831652)">
    <path
       style="fill:#ffffff"
       fill="#aa0061"
       d="M 573.89453,809.80859 H 389.14062 c -53.86718,0 -97.69531,-43.82812 -97.69531,-97.69531 v -184.75 c 0,-53.86719 43.82813,-97.69531 97.69531,-97.69531 h 184.75 c 53.86719,0 97.69532,43.82812 97.69532,97.69531 v 184.75 c 0,53.86719 -43.82813,97.69531 -97.69532,97.69531 z m 0,0"
       fill-opacity="1"
       fill-rule="nonzero"
       id="path28" />
  </g>
  <g
     style="fill:#ffffff"
     clip-path="url(#9409251290)"
     id="g34"
     transform="translate(-289.44703,1.1831652)">
    <path
       style="fill:#ffffff"
       fill="#aa0061"
       d="M 1000.7383,809.80859 H 815.98828 c -53.86719,0 -97.69531,-43.82812 -97.69531,-97.69531 v -184.75 c 0,-53.86719 43.82812,-97.69531 97.69531,-97.69531 h 184.75002 c 53.8672,0 97.6953,43.82812 97.6953,97.69531 v 184.75 c 0,53.86719 -43.8281,97.69531 -97.6953,97.69531 z m 0,0"
       fill-opacity="1"
       fill-rule="nonzero"
       id="path32" />
  </g>
  <path
     style="fill:#32a4d9;fill-opacity:1"
     fill="#d9d9d9"
     d="m 250.40063,172.12458 -38.21485,-0.39063 0.39063,-38.21484 c 0.11328,-11 -8.71094,-20.00781 -19.71094,-20.1211 -11,-0.11328 -20.00781,8.71094 -20.12109,19.71094 l -0.39063,38.21875 -38.21875,-0.39062 c -0.0937,0 -0.18359,0 -0.28125,0 -10.86719,0.0352 -19.72266,8.80468 -19.83984,19.71093 -0.11328,11 8.71484,20.00782 19.71484,20.1211 l 38.21484,0.39062 -0.39062,38.21485 c -0.11328,11 8.71094,20.00781 19.71484,20.12109 0.0937,0 0.1836,0 0.28125,0 10.86719,-0.043 19.72266,-8.80859 19.83594,-19.71094 l 0.39063,-38.21875 38.21875,0.39063 c 0.0937,0 0.1875,0 0.28125,0 10.86718,-0.0391 19.72265,-8.80469 19.83984,-19.71094 0.11328,-11 -8.71094,-20.00781 -19.71484,-20.12109 z m 0,0"
     fill-opacity="1"
     fill-rule="nonzero"
     id="path36" />
  <path
     style="fill:#32a4d9;fill-opacity:1"
     fill="#d9d9d9"
     d="m 220.23656,620.97223 27.07032,-26.97265 c 7.79296,-7.76563 7.8164,-20.375 0.0508,-28.16797 -7.76953,-7.79297 -20.375,-7.81641 -28.16797,-0.0469 l -27.07031,26.97656 -26.97657,-27.07421 c -0.0664,-0.0664 -0.13281,-0.13282 -0.19922,-0.19532 -7.77734,-7.59765 -20.23828,-7.54687 -27.96484,0.14844 -7.79297,7.76172 -7.8125,20.37109 -0.0469,28.16406 l 26.97265,27.07422 -27.07031,26.97656 c -7.79297,7.76172 -7.81641,20.3711 -0.0469,28.16407 0.0664,0.0664 0.12891,0.13281 0.19532,0.19922 7.78125,7.59375 20.24218,7.54296 27.96875,-0.15235 l 27.07031,-26.97656 26.97656,27.07422 c 0.0664,0.0664 0.13281,0.13281 0.19922,0.19531 7.78125,7.59766 20.24219,7.54688 27.96484,-0.14844 7.79297,-7.76172 7.8125,-20.37109 0.0508,-28.16406 z m 0,0"
     fill-opacity="1"
     fill-rule="nonzero"
     id="path38" />
  <path
     style="fill:#32a4d9;fill-opacity:1"
     fill="#d9d9d9"
     d="m 671.46313,211.2652 c -0.0937,0 -0.1875,0 -0.28125,0 l -116.26563,-0.19531 c -11,-0.0195 -19.89844,-8.95313 -19.88281,-19.95313 0.0195,-10.90625 8.80469,-19.75 19.67187,-19.8789 0.0977,0 0.1875,0 0.28125,0 l 116.26563,0.19531 c 11,0.0195 19.89844,8.95312 19.88281,19.95312 -0.0195,10.90625 -8.80469,19.75 -19.67187,19.87891 z m 0,0"
     fill-opacity="1"
     fill-rule="nonzero"
     id="path40" />
  <path
     style="fill:#32a4d9;fill-opacity:1"
     fill="#d9d9d9"
     d="m 671.63109,638.30817 c -0.082,0 -0.16796,0 -0.25,0 l -104.94921,-0.33984 c -9.92969,-0.0274 -17.97657,-8.97266 -17.96875,-19.96875 0,-10.90625 7.91796,-19.73438 17.73046,-19.85547 0.082,0 0.16797,0 0.25,0 l 104.94922,0.33593 c 9.92969,0.0312 17.97266,8.97657 17.96875,19.96875 0,10.90625 -7.91797,19.73829 -17.73047,19.85938 z m 0,0"
     fill-opacity="1"
     fill-rule="nonzero"
     id="path42" />
  <path
     style="fill:#32a4d9;fill-opacity:1"
     fill="#d9d9d9"
     d="m 646.25609,557.24176 c 0,0.89453 -0.0469,1.78907 -0.13281,2.67969 -0.0898,0.89063 -0.21875,1.77734 -0.39453,2.65234 -0.17578,0.87891 -0.39062,1.7461 -0.65234,2.60547 -0.25782,0.85547 -0.5625,1.69922 -0.90235,2.52344 -0.34375,0.82813 -0.72656,1.63672 -1.14843,2.42578 -0.42188,0.79297 -0.88282,1.5586 -1.37891,2.30469 -0.49609,0.74219 -1.03125,1.46094 -1.59766,2.15234 -0.57031,0.69532 -1.17187,1.35547 -1.80468,1.98828 -0.63282,0.63282 -1.29297,1.23438 -1.98829,1.80469 -0.6914,0.56641 -1.41015,1.09766 -2.15234,1.59766 -0.74609,0.49609 -1.51172,0.95703 -2.30078,1.3789 -0.79297,0.42188 -1.60156,0.80469 -2.42578,1.14844 -0.82813,0.33985 -1.67188,0.64063 -2.52735,0.90235 -0.85937,0.26171 -1.72656,0.47656 -2.60546,0.65234 -0.875,0.17578 -1.76172,0.30469 -2.65235,0.39453 -0.89062,0.0859 -1.78515,0.12891 -2.67969,0.12891 -0.89453,0 -1.78906,-0.043 -2.67968,-0.12891 -0.89063,-0.0898 -1.77735,-0.21875 -2.65625,-0.39453 -0.875,-0.17578 -1.7461,-0.39063 -2.60157,-0.65234 -0.85546,-0.26172 -1.69921,-0.5625 -2.52734,-0.90235 -0.82422,-0.34375 -1.63281,-0.72656 -2.42578,-1.14844 -0.78906,-0.42187 -1.55469,-0.88281 -2.30078,-1.3789 -0.74219,-0.5 -1.46094,-1.03125 -2.15625,-1.59766 -0.69141,-0.57031 -1.35156,-1.17187 -1.98828,-1.80469 -0.63282,-0.63281 -1.23047,-1.29296 -1.80078,-1.98828 -0.56641,-0.6914 -1.10157,-1.41015 -1.59766,-2.15234 -0.49609,-0.74609 -0.95703,-1.51172 -1.37891,-2.30469 -0.42187,-0.78906 -0.80468,-1.59765 -1.14843,-2.42578 -0.34375,-0.82422 -0.64454,-1.66797 -0.90235,-2.52344 -0.26172,-0.85937 -0.47656,-1.72656 -0.65234,-2.60547 -0.17578,-0.875 -0.30469,-1.76171 -0.39453,-2.65234 -0.0859,-0.89062 -0.13282,-1.78516 -0.13282,-2.67969 0,-0.89453 0.0469,-1.78906 0.13282,-2.67968 0.0898,-0.89063 0.21875,-1.77735 0.39453,-2.65625 0.17578,-0.87891 0.39062,-1.7461 0.65234,-2.60157 0.25781,-0.85547 0.5586,-1.69922 0.90235,-2.52734 0.34375,-0.82813 0.72656,-1.63672 1.14843,-2.42578 0.42188,-0.78906 0.88282,-1.55469 1.37891,-2.30078 0.49609,-0.7461 1.03125,-1.46094 1.59766,-2.15625 0.57031,-0.69141 1.16796,-1.35547 1.80078,-1.98828 0.63672,-0.63282 1.29687,-1.23047 1.98828,-1.80079 0.69531,-0.5664 1.41406,-1.10156 2.15625,-1.59765 0.74609,-0.5 1.51172,-0.95703 2.30078,-1.37891 0.79297,-0.42187 1.59766,-0.80469 2.42578,-1.14844 0.82813,-0.34375 1.67188,-0.64453 2.52734,-0.90234 0.85547,-0.26172 1.72657,-0.48047 2.60157,-0.65234 0.8789,-0.17578 1.76562,-0.3086 2.65625,-0.39453 0.89062,-0.0899 1.78515,-0.13282 2.67968,-0.13282 0.89454,0 1.78907,0.043 2.67969,0.13282 0.89063,0.0859 1.77735,0.21875 2.65235,0.39453 0.8789,0.17187 1.74609,0.39062 2.60546,0.65234 0.85547,0.25781 1.69922,0.55859 2.52735,0.90234 0.82422,0.34375 1.63281,0.72657 2.42578,1.14844 0.78906,0.42188 1.55469,0.87891 2.30078,1.37891 0.74219,0.49609 1.46094,1.03125 2.15234,1.59765 0.69532,0.57032 1.35547,1.16797 1.98829,1.80079 0.63281,0.63281 1.23437,1.29687 1.80468,1.98828 0.56641,0.69531 1.10157,1.41015 1.59766,2.15625 0.49609,0.74609 0.95703,1.51172 1.37891,2.30078 0.42187,0.78906 0.80468,1.59765 1.14843,2.42578 0.33985,0.82812 0.64453,1.67187 0.90235,2.52734 0.26172,0.85547 0.47656,1.72266 0.65234,2.60157 0.17578,0.8789 0.30469,1.76562 0.39453,2.65625 0.0859,0.89062 0.13281,1.78515 0.13281,2.67968 z m 0,0"
     fill-opacity="1"
     fill-rule="nonzero"
     id="path44" />
  <path
     style="fill:#32a4d9;fill-opacity:1"
     fill="#d9d9d9"
     d="m 646.25609,684.60895 c 0,0.89453 -0.0469,1.78906 -0.13281,2.67969 -0.0898,0.89062 -0.21875,1.77734 -0.39453,2.65625 -0.17578,0.8789 -0.39062,1.74609 -0.65234,2.60156 -0.25782,0.85547 -0.5625,1.69922 -0.90235,2.52734 -0.34375,0.82813 -0.72656,1.63672 -1.14843,2.42579 -0.42188,0.78906 -0.88282,1.55468 -1.37891,2.30078 -0.49609,0.74609 -1.03125,1.46093 -1.59766,2.15625 -0.57031,0.6914 -1.17187,1.35547 -1.80468,1.98828 -0.63282,0.63281 -1.29297,1.23047 -1.98829,1.80078 -0.6914,0.56641 -1.41015,1.10156 -2.15234,1.59766 -0.74609,0.49609 -1.51172,0.95703 -2.30078,1.3789 -0.79297,0.42188 -1.60156,0.80469 -2.42578,1.14844 -0.82813,0.34375 -1.67188,0.64453 -2.52735,0.90234 -0.85937,0.26172 -1.72656,0.48047 -2.60546,0.65235 -0.875,0.17578 -1.76172,0.30859 -2.65235,0.39453 -0.89062,0.0898 -1.78515,0.13281 -2.67969,0.13281 -0.89453,0 -1.78906,-0.043 -2.67968,-0.13281 -0.89063,-0.0859 -1.77735,-0.21875 -2.65625,-0.39453 -0.875,-0.17188 -1.7461,-0.39063 -2.60157,-0.65235 -0.85546,-0.25781 -1.69921,-0.55859 -2.52734,-0.90234 -0.82422,-0.34375 -1.63281,-0.72656 -2.42578,-1.14844 -0.78906,-0.42187 -1.55469,-0.88281 -2.30078,-1.3789 -0.74219,-0.4961 -1.46094,-1.03125 -2.15625,-1.59766 -0.69141,-0.56641 -1.35156,-1.16797 -1.98828,-1.80078 -0.63282,-0.63281 -1.23047,-1.29688 -1.80078,-1.98828 -0.56641,-0.69532 -1.10157,-1.41016 -1.59766,-2.15625 -0.49609,-0.7461 -0.95703,-1.51172 -1.37891,-2.30078 -0.42187,-0.78907 -0.80468,-1.59766 -1.14843,-2.42579 -0.34375,-0.82812 -0.64454,-1.67187 -0.90235,-2.52734 -0.26172,-0.85547 -0.47656,-1.72266 -0.65234,-2.60156 -0.17578,-0.87891 -0.30469,-1.76563 -0.39453,-2.65625 -0.0859,-0.89063 -0.13282,-1.78516 -0.13282,-2.67969 0,-0.89453 0.0469,-1.78906 0.13282,-2.67969 0.0898,-0.89062 0.21875,-1.77734 0.39453,-2.65234 0.17578,-0.87891 0.39062,-1.74609 0.65234,-2.60547 0.25781,-0.85547 0.5586,-1.69922 0.90235,-2.52344 0.34375,-0.82812 0.72656,-1.63672 1.14843,-2.42578 0.42188,-0.79297 0.88282,-1.55859 1.37891,-2.30469 0.49609,-0.74218 1.03125,-1.46093 1.59766,-2.15234 0.57031,-0.69531 1.16796,-1.35547 1.80078,-1.98828 0.63672,-0.63281 1.29687,-1.23438 1.98828,-1.80469 0.69531,-0.5664 1.41406,-1.09765 2.15625,-1.59765 0.74609,-0.4961 1.51172,-0.95704 2.30078,-1.37891 0.79297,-0.42188 1.59766,-0.80469 2.42578,-1.14844 0.82813,-0.33984 1.67188,-0.64062 2.52734,-0.90234 0.85547,-0.26172 1.72657,-0.47656 2.60157,-0.65235 0.8789,-0.17578 1.76562,-0.30468 2.65625,-0.39453 0.89062,-0.0859 1.78515,-0.1289 2.67968,-0.1289 0.89454,0 1.78907,0.043 2.67969,0.1289 0.89063,0.0899 1.77735,0.21875 2.65235,0.39453 0.8789,0.17579 1.74609,0.39063 2.60546,0.65235 0.85547,0.26172 1.69922,0.5625 2.52735,0.90234 0.82422,0.34375 1.63281,0.72656 2.42578,1.14844 0.78906,0.42187 1.55469,0.88281 2.30078,1.37891 0.74219,0.5 1.46094,1.03125 2.15234,1.59765 0.69532,0.57031 1.35547,1.17188 1.98829,1.80469 0.63281,0.63281 1.23437,1.29687 1.80468,1.98828 0.56641,0.69141 1.10157,1.41016 1.59766,2.15234 0.49609,0.7461 0.95703,1.51172 1.37891,2.30469 0.42187,0.78906 0.80468,1.59766 1.14843,2.42578 0.33985,0.82422 0.64453,1.66797 0.90235,2.52344 0.26172,0.85938 0.47656,1.72656 0.65234,2.60547 0.17578,0.875 0.30469,1.76172 0.39453,2.65234 0.0859,0.89063 0.13281,1.78516 0.13281,2.67969 z m 0,0"
     fill-opacity="1"
     fill-rule="nonzero"
     id="path46" />
</svg>
