<?xml version="1.0" encoding="UTF-8" standalone="no"?>
<svg
   xmlns:dc="http://purl.org/dc/elements/1.1/"
   xmlns:cc="http://creativecommons.org/ns#"
   xmlns:rdf="http://www.w3.org/1999/02/22-rdf-syntax-ns#"
   xmlns:svg="http://www.w3.org/2000/svg"
   xmlns="http://www.w3.org/2000/svg"
   xmlns:sodipodi="http://sodipodi.sourceforge.net/DTD/sodipodi-0.dtd"
   xmlns:inkscape="http://www.inkscape.org/namespaces/inkscape"
   inkscape:version="1.0 (4035a4fb49, 2020-05-01)"
   sodipodi:docname="LogoABBOTTHorizon.svg"
   viewBox="0 0 1056 300"
   height="300"
   width="1056"
   xml:space="preserve"
   id="svg2"
   version="1.1"><metadata
     id="metadata8"><rdf:RDF><cc:Work
         rdf:about=""><dc:format>image/svg+xml</dc:format><dc:type
           rdf:resource="http://purl.org/dc/dcmitype/StillImage" /><dc:title></dc:title></cc:Work></rdf:RDF></metadata><defs
     id="defs6"><clipPath
       id="clipPath18"
       clipPathUnits="userSpaceOnUse"><path
         id="path16"
         d="M 0,612 H 792 V 0 H 0 Z" /></clipPath></defs><sodipodi:namedview
     inkscape:current-layer="g10"
     inkscape:window-maximized="1"
     inkscape:window-y="-8"
     inkscape:window-x="-8"
     inkscape:cy="430.40173"
     inkscape:cx="556.81055"
     inkscape:zoom="0.75216751"
     showgrid="false"
     id="namedview4"
     inkscape:window-height="1017"
     inkscape:window-width="1920"
     inkscape:pageshadow="2"
     inkscape:pageopacity="0"
     guidetolerance="10"
     gridtolerance="10"
     objecttolerance="10"
     borderopacity="1"
     bordercolor="#666666"
     pagecolor="#ffffff" /><g
     transform="matrix(1.3333333,0,0,-1.3333333,0,816)"
     inkscape:label="ABBOTT Horiz color"
     inkscape:groupmode="layer"
     id="g10"><g
       transform="matrix(1.5120084,0,0,1.5120084,-201.73222,34.002581)"
       id="g12"><g
         clip-path="url(#clipPath18)"
         id="g14"><g
           transform="translate(279.147,369.7808)"
           id="g20"><path
             id="path22"
             style="fill:#0096d6;fill-opacity:1;fill-rule:nonzero;stroke:none"
             d="M 0,0 H -138.265 V -21.248 H -6.903 v -0.019 c 3.8,0 6.841,-3.052 6.841,-6.835 v -71.352 l -0.018,-0.061 c -0.024,-3.77 -3.09,-6.798 -6.854,-6.798 h -103.235 c -3.777,0 -6.873,3.053 -6.873,6.859 v 28.826 c 0,3.782 3.096,6.859 6.873,6.859 h 88.816 v 21.218 h -95.732 c -11.696,0 -21.18,-9.466 -21.18,-21.162 v -42.662 c 0,-11.703 9.484,-21.186 21.18,-21.186 H 0 c 11.708,0 21.18,9.483 21.18,21.186 v 85.188 C 21.18,-9.49 11.708,0 0,0" /></g><g
           transform="translate(357.8755,303.5684)"
           id="g24"><path
             id="path26"
             style="fill:#231f20;fill-opacity:1;fill-rule:nonzero;stroke:none"
             d="M 0,0 7.062,21.339 H 7.258 L 14.382,0 Z M 37.512,-13.463 20.948,36.089 H 1.116 l -16.552,-49.552 c -2.011,-6.044 -3.378,-7.442 -6.848,-7.442 h -3.372 v -8.717 H 3.482 v 8.717 H 0.631 c -2.691,0 -6.173,0.306 -6.173,1.9 0,1.399 0.398,2.863 1.483,6.327 l 1.208,3.96 h 20.218 l 2.072,-7.117 c 0.399,-1.49 0.497,-2.581 0.497,-3.599 0,-1.073 -2.477,-1.471 -5.45,-1.471 h -2.967 v -8.717 h 36.169 v 8.717 h -3.365 c -3.458,0 -4.843,1.398 -6.811,7.442" /></g><g
           transform="translate(435.6025,280.9932)"
           id="g28"><path
             id="path30"
             style="fill:#231f20;fill-opacity:1;fill-rule:nonzero;stroke:none"
             d="m 0,0 c -5.547,0 -7.821,6.032 -7.821,16.159 0,10.103 2.274,16.142 7.821,16.142 5.579,0 7.829,-6.039 7.829,-16.142 C 7.829,6.032 5.579,0 0,0 m 4.947,40.834 c -4.437,0 -9.103,-2.672 -12.768,-6.841 v 24.669 h -24.59 v -7.927 h 4.561 c 2.87,0 3.562,-1.465 3.562,-4.267 V -7.057 h 11.121 l 2.862,6.168 c 3.451,-5.45 9.012,-7.632 15.252,-7.632 14.873,0 20.415,11.592 20.415,24.68 0,13.058 -5.542,24.675 -20.415,24.675" /></g><g
           transform="translate(491.2236,280.9932)"
           id="g32"><path
             id="path34"
             style="fill:#231f20;fill-opacity:1;fill-rule:nonzero;stroke:none"
             d="m 0,0 c -5.541,0 -7.841,6.032 -7.841,16.159 0,10.103 2.3,16.142 7.841,16.142 5.555,0 7.823,-6.039 7.823,-16.142 C 7.823,6.032 5.555,0 0,0 m 4.947,40.834 c -4.457,0 -9.109,-2.672 -12.788,-6.841 v 24.669 h -24.576 v -7.927 h 4.573 c 2.845,0 3.543,-1.465 3.543,-4.267 V -7.057 h 11.103 l 2.887,6.168 c 3.463,-5.45 9.018,-7.632 15.258,-7.632 14.879,0 20.433,11.592 20.433,24.68 0,13.058 -5.554,24.675 -20.433,24.675" /></g><g
           transform="translate(546.9326,280.4023)"
           id="g36"><path
             id="path38"
             style="fill:#231f20;fill-opacity:1;fill-rule:nonzero;stroke:none"
             d="m 0,0 c -5.953,0 -8.031,5.058 -8.031,16.749 0,11.69 2.078,16.748 8.031,16.748 5.934,0 8.012,-5.058 8.012,-16.748 C 8.012,5.058 5.934,0 0,0 m 0,41.423 c -14.793,0 -25.582,-8.815 -25.582,-24.674 0,-15.866 10.789,-24.682 25.582,-24.682 14.762,0 25.569,8.816 25.569,24.682 0,15.859 -10.807,24.674 -25.569,24.674" /></g><g
           transform="translate(643.1738,296.3477)"
           id="g40"><path
             id="path42"
             style="fill:#231f20;fill-opacity:1;fill-rule:nonzero;stroke:none"
             d="m 0,0 v -7.73 c 0,-4.555 -0.981,-7.247 -4.752,-7.247 -2.28,0 -3.359,1.699 -3.359,3.783 V 16.062 H 4.058 v 7.932 H -8.111 v 18.41 h -9.833 c -0.803,-8.209 -3.372,-18.41 -13.279,-18.41 h -15.461 v 18.41 h -9.802 c -0.797,-8.209 -3.384,-18.41 -13.285,-18.41 v -7.932 h 6.639 V -8.815 c 0,-10.116 5.647,-15.063 15.841,-15.063 11.918,0 16.645,5.34 16.645,15.063 V 0 h -7.897 v -7.73 c 0,-4.555 -0.999,-7.247 -4.757,-7.247 -2.299,0 -3.384,1.699 -3.384,3.783 v 27.256 h 22.131 V -8.815 c 0,-10.116 5.621,-15.063 15.835,-15.063 11.893,0 16.662,5.34 16.662,15.063 V 0 Z" /></g></g></g></g></svg>
